<?xml version="1.0" standalone="no"?>
<svg viewBox="0 0 200 200" xmlns="http://www.w3.org/2000/svg">
  <path fill="#F06F19" d="M37.3,-57.6C48.6,-58,58.2,-48.6,62.9,-37.4C67.6,-26.1,67.4,-13.1,64.9,-1.5C62.4,10.2,57.6,20.3,50.9,28.1C44.2,35.9,35.6,41.3,26.8,40.9C18,40.4,9,34.2,-0.9,35.8C-10.8,37.4,-21.7,46.9,-31,47.6C-40.4,48.3,-48.2,40.3,-52,30.9C-55.9,21.6,-55.8,10.8,-59.4,-2.1C-63,-14.9,-70.2,-29.8,-66.6,-39.7C-63.1,-49.6,-48.7,-54.5,-35.8,-53.2C-22.9,-51.9,-11.4,-44.3,0.8,-45.7C13,-47,26,-57.2,37.3,-57.6Z" transform="translate(100 100)" />
</svg>
